<svg
  xmlns="http://www.w3.org/2000/svg"
  viewBox="0 0 512 512"
  role="img"
  aria-label="SyncroEdit premium app icon on transparent background"
>
  <defs>
    <linearGradient id="bg" x1="91" y1="32" x2="421" y2="480" gradientUnits="userSpaceOnUse">
      <stop offset="0" stop-color="#9a7cff" />
      <stop offset="0.48" stop-color="#5f35c8" />
      <stop offset="1" stop-color="#261051" />
    </linearGradient>
    <radialGradient id="glow" cx="172" cy="82" r="344" gradientUnits="userSpaceOnUse">
      <stop offset="0" stop-color="#ffffff" stop-opacity="0.3" />
      <stop offset="0.42" stop-color="#c7b7ff" stop-opacity="0.12" />
      <stop offset="1" stop-color="#120727" stop-opacity="0" />
    </radialGradient>
    <linearGradient id="page" x1="164" y1="86" x2="358" y2="444" gradientUnits="userSpaceOnUse">
      <stop offset="0" stop-color="#ffffff" />
      <stop offset="0.58" stop-color="#f5f2ff" />
      <stop offset="1" stop-color="#e8e1ff" />
    </linearGradient>
    <linearGradient id="fold" x1="302" y1="97" x2="380" y2="186" gradientUnits="userSpaceOnUse">
      <stop offset="0" stop-color="#ffffff" />
      <stop offset="1" stop-color="#d7cdfb" />
    </linearGradient>
    <filter id="softDepth" x="-18%" y="-18%" width="136%" height="142%">
      <feDropShadow dx="0" dy="18" stdDeviation="24" flood-color="#16072c" flood-opacity="0.34" />
      <feDropShadow dx="0" dy="2" stdDeviation="2" flood-color="#ffffff" flood-opacity="0.22" />
    </filter>
    <clipPath id="iconMask">
      <rect width="512" height="512" rx="112" />
    </clipPath>
  </defs>
  <g clip-path="url(#iconMask)">
    <rect width="512" height="512" rx="112" fill="url(#bg)" />
    <rect width="512" height="512" rx="112" fill="url(#glow)" />
    <path d="M0 346c78 42 169 63 272 63 91 0 171-16 240-49v152H0z" fill="#13072b" opacity="0.16" />
  </g>
  <g filter="url(#softDepth)">
    <path
      d="M156 86h148l94 94v226c0 24-19 43-43 43H156c-24 0-43-19-43-43V129c0-24 19-43 43-43z"
      fill="url(#page)"
    />
    <path d="M304 86v70c0 15 12 27 27 27h67z" fill="url(#fold)" />
    <path
      d="M304 87v69c0 15 12 27 27 27h66"
      fill="none"
      stroke="#c6b8f5"
      stroke-opacity="0.52"
      stroke-width="3"
    />
    <path
      d="M319 218H203l82 72-82 72h116"
      fill="none"
      stroke="#5d35c5"
      stroke-width="34"
      stroke-linecap="round"
      stroke-linejoin="round"
    />
    <path
      d="M319 218H203l82 72-82 72h116"
      fill="none"
      stroke="#8764ea"
      stroke-opacity="0.18"
      stroke-width="20"
      stroke-linecap="round"
      stroke-linejoin="round"
    />
  </g>
</svg>
