<svg
  xmlns="http://www.w3.org/2000/svg"
  viewBox="0 0 512 512"
  role="img"
  aria-label="SyncroEdit premium app icon variant two"
>
  <defs>
    <linearGradient id="bg" x1="76" y1="42" x2="422" y2="470" gradientUnits="userSpaceOnUse">
      <stop offset="0" stop-color="#8f78ff" />
      <stop offset="0.54" stop-color="#4e2cb6" />
      <stop offset="1" stop-color="#1c0d44" />
    </linearGradient>
    <radialGradient id="shine" cx="255" cy="48" r="350" gradientUnits="userSpaceOnUse">
      <stop offset="0" stop-color="#fbf8ff" stop-opacity="0.22" />
      <stop offset="1" stop-color="#fbf8ff" stop-opacity="0" />
    </radialGradient>
    <filter id="depth" x="-20%" y="-20%" width="140%" height="140%">
      <feDropShadow dx="0" dy="18" stdDeviation="24" flood-color="#0c041b" flood-opacity="0.34" />
    </filter>
    <clipPath id="mask"><rect width="512" height="512" rx="112" /></clipPath>
  </defs>
  <g clip-path="url(#mask)">
    <rect width="512" height="512" rx="112" fill="url(#bg)" />
    <rect width="512" height="512" rx="112" fill="url(#shine)" />
  </g>
  <g filter="url(#depth)">
    <path
      d="M160 91h142l89 89v223c0 25-20 45-45 45H160c-25 0-45-20-45-45V136c0-25 20-45 45-45z"
      fill="#fbf9ff"
    />
    <path d="M302 91v68c0 14 12 26 26 26h63z" fill="#e3dcfb" />
    <path
      d="M321 222H202l84 68-84 68h119"
      fill="none"
      stroke="#5630bd"
      stroke-width="32"
      stroke-linecap="round"
      stroke-linejoin="round"
    />
    <path
      d="M194 396h124"
      stroke="#d9d0fb"
      stroke-width="11"
      stroke-linecap="round"
      opacity="0.7"
    />
  </g>
</svg>
