<svg
  xmlns="http://www.w3.org/2000/svg"
  viewBox="0 0 512 512"
  role="img"
  aria-label="SyncroEdit premium app icon variant three"
>
  <defs>
    <linearGradient id="bg" x1="84" y1="22" x2="428" y2="487" gradientUnits="userSpaceOnUse">
      <stop offset="0" stop-color="#b29cff" />
      <stop offset="0.45" stop-color="#7048df" />
      <stop offset="1" stop-color="#30115f" />
    </linearGradient>
    <radialGradient id="glow" cx="122" cy="88" r="362" gradientUnits="userSpaceOnUse">
      <stop offset="0" stop-color="#fff" stop-opacity="0.34" />
      <stop offset="1" stop-color="#fff" stop-opacity="0" />
    </radialGradient>
    <filter id="depth" x="-20%" y="-20%" width="140%" height="140%">
      <feDropShadow dx="0" dy="18" stdDeviation="24" flood-color="#18082f" flood-opacity="0.33" />
    </filter>
    <clipPath id="mask"><rect width="512" height="512" rx="112" /></clipPath>
  </defs>
  <g clip-path="url(#mask)">
    <rect width="512" height="512" rx="112" fill="url(#bg)" />
    <rect width="512" height="512" rx="112" fill="url(#glow)" />
  </g>
  <g filter="url(#depth)">
    <path
      d="M151 89h153l94 94v223c0 24-20 44-44 44H151c-24 0-44-20-44-44V133c0-24 20-44 44-44z"
      fill="#fdfbff"
    />
    <path d="M304 89v68c0 16 13 29 29 29h65z" fill="#e7ddff" />
    <path
      d="M322 221H205l82 69-82 69h117"
      fill="none"
      stroke="#6a45d7"
      stroke-width="30"
      stroke-linecap="round"
      stroke-linejoin="round"
    />
    <path
      d="M303 90v67c0 16 13 29 29 29h65"
      fill="none"
      stroke="#cabef4"
      stroke-width="4"
      opacity="0.65"
    />
  </g>
</svg>
