<svg
  xmlns="http://www.w3.org/2000/svg"
  viewBox="0 0 512 512"
  role="img"
  aria-label="SyncroEdit premium app icon variant one"
>
  <defs>
    <linearGradient id="bg" x1="74" y1="28" x2="438" y2="486" gradientUnits="userSpaceOnUse">
      <stop offset="0" stop-color="#a78bfa" />
      <stop offset="0.5" stop-color="#6d45d8" />
      <stop offset="1" stop-color="#2a105e" />
    </linearGradient>
    <radialGradient id="light" cx="164" cy="82" r="340" gradientUnits="userSpaceOnUse">
      <stop offset="0" stop-color="#fff" stop-opacity="0.28" />
      <stop offset="1" stop-color="#fff" stop-opacity="0" />
    </radialGradient>
    <linearGradient id="paper" x1="151" y1="88" x2="363" y2="442" gradientUnits="userSpaceOnUse">
      <stop offset="0" stop-color="#fff" />
      <stop offset="1" stop-color="#eee8ff" />
    </linearGradient>
    <filter id="depth" x="-20%" y="-20%" width="140%" height="140%">
      <feDropShadow dx="0" dy="16" stdDeviation="22" flood-color="#17072f" flood-opacity="0.32" />
    </filter>
    <clipPath id="mask"><rect width="512" height="512" rx="112" /></clipPath>
  </defs>
  <g clip-path="url(#mask)">
    <rect width="512" height="512" rx="112" fill="url(#bg)" />
    <rect width="512" height="512" rx="112" fill="url(#light)" />
  </g>
  <g filter="url(#depth)">
    <path
      d="M154 89h149l92 92v225c0 24-19 43-43 43H154c-24 0-43-19-43-43V132c0-24 19-43 43-43z"
      fill="url(#paper)"
    />
    <path d="M303 89v68c0 15 12 27 27 27h65z" fill="#ded5fb" />
    <path
      d="M324 226H205l78 65-78 65h119"
      fill="none"
      stroke="#6240ce"
      stroke-width="31"
      stroke-linecap="round"
      stroke-linejoin="round"
    />
  </g>
</svg>
